# xmcd CD database file
#
# Track frame offsets:
#	150
#	18432
#	37050
#	68295
#	88317
#	113452
#	129727
#	149232
#	166367
#	182555
#	197062
#	211690
#
# Disc length: 3193 seconds
#
# Revision: 1
# Processed by: cddbd v1.5.1PL2 Copyright (c) Steve Scherf et al.
# Submitted via: CDex 1.51
#
DISCID=a80c770c
DTITLE=Various Artist - Smokin': A Bluegrass Tribute to Boston
DYEAR=2000
DGENRE=Bluegrass
TTITLE0=More Than A Feeling
TTITLE1=Peace Of Mind
TTITLE2=Foreplay/Longtime
TTITLE3=Smokin'
TTITLE4=Don't Look Back
TTITLE5=Hitch A Ride
TTITLE6=We're Ready
TTITLE7=Higher Power
TTITLE8=Amanda
TTITLE9=Let Me Take You Home Tonight
TTITLE10=Rock N' Roll Band
TTITLE11=A Man I'll Never Be
EXTD=YEAR: 2000
EXTT0=
EXTT1=
EXTT2=
EXTT3=
EXTT4=
EXTT5=
EXTT6=
EXTT7=
EXTT8=
EXTT9=
EXTT10=
EXTT11=
PLAYORDER=
